<svg width="512" height="512" viewBox="0 0 512 512" fill="none" xmlns="http://www.w3.org/2000/svg">
<circle cx="256" cy="256" r="249" fill="#D7F4F8"/>
<path d="M125 182.889V212V226.556V270.222V284.778V357.556V372.111C125 388.122 138.033 401.222 154.111 401.222H357.889C373.973 401.222 387 388.122 387 372.111V357.556V284.778V226.556V182.889H125Z" fill="#16A085"/>
<path d="M125 168.333V197.444V212V255.667V270.222V343V357.556C125 373.567 138.033 386.667 154.111 386.667H357.889C373.973 386.667 387 373.567 387 357.556V343V270.222V212V168.333H125Z" fill="#ECF0F1"/>
<path d="M125 153.778V182.889V197.444V241.111V255.667V328.444V343C125 359.011 138.033 372.111 154.111 372.111H357.889C373.973 372.111 387 359.011 387 343V328.444V255.667V197.444V153.778H125Z" fill="#BDC3C7"/>
<path d="M125 139.222V168.333V182.889V226.556V241.111V313.889V328.444C125 344.456 138.033 357.556 154.111 357.556H357.889C373.973 357.556 387 344.456 387 328.444V313.889V241.111V182.889V139.222H125Z" fill="#ECF0F1"/>
<path d="M154.111 81C138.033 81 125 94.1 125 110.111V124.667V182.889V212V226.556V270.222V284.778V357.556V372.111C125 388.122 138.033 401.222 154.111 401.222H183.222V386.667H161.389C149.331 386.667 139.556 376.478 139.556 364.833C139.556 351.733 149.331 343 161.389 343H343.333H357.889C373.973 343 387 329.9 387 313.889V299.333V226.556V168.333V124.667V110.111C387 94.1 373.973 81 357.889 81H299.667H154.111Z" fill="#16A085"/>
<path d="M197.778 81V343H212.333H343.333H357.889C373.973 343 387 329.9 387 313.889V299.333V226.556V168.333V124.667V110.111C387 94.1 373.973 81 357.889 81H299.667H212.333H197.778Z" fill="#1ABC9C"/>
<path d="M183.222 372.111V401.222V430.333L219.611 401.222L256 430.333V401.222V372.111H183.222Z" fill="#E74C3C"/>
<path d="M183.222 357.556H256V372.111H183.222V357.556Z" fill="#C0392B"/>
</svg>
